<svg width="21" height="20" viewBox="0 0 21 20" fill="none" xmlns="http://www.w3.org/2000/svg">
<path fill-rule="evenodd" clip-rule="evenodd" d="M8.37872 3.87868C8.94133 3.31607 9.70439 3 10.5 3C11.2957 3 12.0587 3.31607 12.6214 3.87868C13.184 4.44129 13.5 5.20435 13.5 6V7H7.50004V6C7.50004 5.20435 7.81611 4.44129 8.37872 3.87868ZM14.5 6V7H15C16.4359 7 17.5 8.06406 17.5 9.5V9.50684V9.51376V9.52076V9.52785V9.53502V9.54228V9.54961V9.55703V9.56453V9.57211V9.57976V9.5875V9.59532V9.60322V9.6112V9.61925V9.62739V9.6356V9.64389V9.65225V9.6607V9.66921V9.67781V9.68648V9.69522V9.70404V9.71294V9.72191V9.73095V9.74006V9.74925V9.75851V9.76784V9.77725V9.78672V9.79627V9.80589V9.81557V9.82533V9.83516V9.84505V9.85501V9.86505V9.87514V9.88531V9.89555V9.90585V9.91621V9.92665V9.93715V9.94771V9.95834V9.96903V9.97979V9.99061V10.0015V10.0124V10.0235V10.0345V10.0457V10.0569V10.0681V10.0794V10.0908V10.1022V10.1137V10.1253V10.1369V10.1486V10.1603V10.1721V10.1839V10.1958V10.2078V10.2198V10.2319V10.244V10.2562V10.2684V10.2807V10.2931V10.3055V10.3179V10.3304V10.343V10.3556V10.3682V10.3809V10.3937V10.4065V10.4194V10.4323V10.4452V10.4582V10.4713V10.4844V10.4975V10.5107V10.524V10.5373V10.5506V10.564V10.5774V10.5909V10.6044V10.618V10.6316V10.6452V10.6589V10.6727V10.6864V10.7003V10.7141V10.728V10.742V10.756V10.77V10.784V10.7982V10.8123V10.8265V10.8407V10.855V10.8692V10.8836V10.8979V10.9123V10.9268V10.9413V10.9558V10.9703V10.9849V10.9995V11.0142V11.0288V11.0436V11.0583V11.0731V11.0879V11.1027V11.1176V11.1325V11.1474V11.1624V11.1774V11.1924V11.2075V11.2225V11.2376V11.2528V11.2679V11.2831V11.2983V11.3136V11.3288V11.3441V11.3594V11.3748V11.3901V11.4055V11.4209V11.4364V11.4518V11.4673V11.4828V11.4983V11.5139V11.5294V11.545V11.5606V11.5762V11.5919V11.6075V11.6232V11.6389V11.6546V11.6703V11.6861V11.7019V11.7176V11.7334V11.7492V11.7651V11.7809V11.7968V11.8126V11.8285V11.8444V11.8603V11.8762V11.8922V11.9081V11.9241V11.94V11.956V11.972V11.988V12.004V12.02V12.036V12.0521V12.0681V12.0841V12.1002V12.1162V12.1323V12.1484V12.1645V12.1805V12.1966V12.2127V12.2288V12.2449V12.261V12.2771V12.2932V12.3093V12.3254V12.3415V12.3576V12.3737V12.3899V12.406V12.4221V12.4382V12.4543V12.4704V12.4865V12.5026V12.5187V12.5348V12.5509V12.567V12.583V12.5991V12.6152V12.6313V12.6473V12.6634V12.6794V12.6955V12.7115V12.7275V12.7435V12.7595V12.7755V12.7915V12.8075V12.8235V12.8394V12.8554V12.8713V12.8872V12.9031V12.919V12.9349V12.9508V12.9667V12.9825V12.9983V13.0141V13.0299V13.0457V13.0615V13.0773V13.093V13.1087V13.1244V13.1401V13.1558V13.1714V13.187V13.2026V13.2182V13.2338V13.2493V13.2649V13.2804V13.2959V13.3113V13.3268V13.3422V13.3576V13.3729V13.3883V13.4036V13.4189V13.4342V13.4494V13.4647V13.4798V13.495V13.5102V13.5253V13.5404V13.5554V13.5704V13.5854V13.6004V13.6154V13.6303V13.6451V13.66V13.6748V13.6896V13.7044V13.7191V13.7338V13.7484V13.7631V13.7776V13.7922V13.8067V13.8212V13.8357V13.8501V13.8645V13.8788V13.8931V13.9074V13.9216V13.9358V13.9499V13.9641V13.9781V13.9922V14.0062V14.0201V14.034V14.0479V14.0618V14.0755V14.0893V14.103V14.1167V14.1303V14.1439V14.1574V14.1709V14.1843V14.1977V14.2111V14.2244V14.2376V14.2509V14.264V14.2771V14.2902V14.3032V14.3162V14.3291V14.342V14.3548V14.3676V14.3803V14.393V14.4056V14.4182V14.4307V14.4432V14.4556V14.4679V14.4802V14.4925V14.5047V14.5168V14.5289V14.541V14.5529V14.5649V14.5767V14.5885V14.6003V14.612V14.6236V14.6352V14.6467V14.6581V14.6695V14.6809V14.6921V14.7034V14.7145V14.7256V14.7366V14.7476V14.7585V14.7693V14.7801V14.7908V14.8015V14.8121V14.8226V14.833V14.8434V14.8537V14.864V14.8742V14.8843V14.8944V14.9043V14.9143V14.9241V14.9339V14.9436V14.9532V14.9628V14.9723V14.9817V14.9911V15.0004V15.0096V15.0187V15.0278V15.0368V15.0457V15.0545V15.0633V15.072V15.0806V15.0891V15.0976V15.106V15.1143V15.1225V15.1307V15.1388V15.1468V15.1547V15.1625V15.1703V15.178V15.1856V15.1931V15.2006V15.2079V15.2152V15.2224V15.2295V15.2365V15.2435V15.2504V15.2571V15.2638V15.2704V15.277V15.2834V15.2898V15.296V15.3022V15.3083V15.3143V15.3202V15.326V15.3318V15.3374V15.343V15.3485V15.3539V15.3591V15.3643V15.3695V15.3745V15.3794V15.3842V15.389V15.3936V15.3982V15.4026V15.407V15.4113V15.4154V15.4195V15.4235V15.4274V15.4312V15.4349V15.4385V15.442V15.4454V15.4487V15.4519V15.455V15.458V15.4609V15.4637V15.4664V15.469V15.4715V15.4739V15.4762V15.4784V15.4804V15.4824V15.4843V15.4861V15.4878V15.4893V15.4908V15.4921V15.4934V15.4945V15.4956V15.4965V15.4973V15.498V15.4986V15.4991V15.4995V15.4998V15.4999L17 15.5L16.5 15.4999V15.4998V15.4995V15.4991V15.4986V15.498V15.4973V15.4965V15.4956V15.4945V15.4934V15.4921V15.4908V15.4893V15.4878V15.4861V15.4843V15.4824V15.4804V15.4784V15.4762V15.4739V15.4715V15.469V15.4664V15.4637V15.4609V15.458V15.455V15.4519V15.4487V15.4454V15.442V15.4385V15.4349V15.4312V15.4274V15.4235V15.4195V15.4154V15.4113V15.407V15.4026V15.3982V15.3936V15.389V15.3842V15.3794V15.3745V15.3695V15.3643V15.3591V15.3539V15.3485V15.343V15.3374V15.3318V15.326V15.3202V15.3143V15.3083V15.3022V15.296V15.2898V15.2834V15.277V15.2704V15.2638V15.2571V15.2504V15.2435V15.2365V15.2295V15.2224V15.2152V15.2079V15.2006V15.1931V15.1856V15.178V15.1703V15.1625V15.1547V15.1468V15.1388V15.1307V15.1225V15.1143V15.106V15.0976V15.0891V15.0806V15.072V15.0633V15.0545V15.0457V15.0368V15.0278V15.0187V15.0096V15.0004V14.9911V14.9817V14.9723V14.9628V14.9532V14.9436V14.9339V14.9241V14.9143V14.9043V14.8944V14.8843V14.8742V14.864V14.8537V14.8434V14.833V14.8226V14.8121V14.8015V14.7908V14.7801V14.7693V14.7585V14.7476V14.7366V14.7256V14.7145V14.7034V14.6921V14.6809V14.6695V14.6581V14.6467V14.6352V14.6236V14.612V14.6003V14.5885V14.5767V14.5649V14.5529V14.541V14.5289V14.5168V14.5047V14.4925V14.4802V14.4679V14.4556V14.4432V14.4307V14.4182V14.4056V14.393V14.3803V14.3676V14.3548V14.342V14.3291V14.3162V14.3032V14.2902V14.2771V14.264V14.2509V14.2376V14.2244V14.2111V14.1977V14.1843V14.1709V14.1574V14.1439V14.1303V14.1167V14.103V14.0893V14.0755V14.0618V14.0479V14.034V14.0201V14.0062V13.9922V13.9781V13.9641V13.9499V13.9358V13.9216V13.9074V13.8931V13.8788V13.8645V13.8501V13.8357V13.8212V13.8067V13.7922V13.7776V13.7631V13.7484V13.7338V13.7191V13.7044V13.6896V13.6748V13.66V13.6451V13.6303V13.6154V13.6004V13.5854V13.5704V13.5554V13.5404V13.5253V13.5102V13.495V13.4798V13.4647V13.4494V13.4342V13.4189V13.4036V13.3883V13.3729V13.3576V13.3422V13.3268V13.3113V13.2959V13.2804V13.2649V13.2493V13.2338V13.2182V13.2026V13.187V13.1714V13.1558V13.1401V13.1244V13.1087V13.093V13.0773V13.0615V13.0457V13.0299V13.0141V12.9983V12.9825V12.9667V12.9508V12.9349V12.919V12.9031V12.8872V12.8713V12.8554V12.8394V12.8235V12.8075V12.7915V12.7755V12.7595V12.7435V12.7275V12.7115V12.6955V12.6794V12.6634V12.6473V12.6313V12.6152V12.5991V12.583V12.567V12.5509V12.5348V12.5187V12.5026V12.4865V12.4704V12.4543V12.4382V12.4221V12.406V12.3899V12.3737V12.3576V12.3415V12.3254V12.3093V12.2932V12.2771V12.261V12.2449V12.2288V12.2127V12.1966V12.1805V12.1645V12.1484V12.1323V12.1162V12.1002V12.0841V12.0681V12.0521V12.036V12.02V12.004V11.988V11.972V11.956V11.94V11.9241V11.9081V11.8922V11.8762V11.8603V11.8444V11.8285V11.8126V11.7968V11.7809V11.7651V11.7492V11.7334V11.7176V11.7019V11.6861V11.6703V11.6546V11.6389V11.6232V11.6075V11.5919V11.5762V11.5606V11.545V11.5294V11.5139V11.4983V11.4828V11.4673V11.4518V11.4364V11.4209V11.4055V11.3901V11.3748V11.3594V11.3441V11.3288V11.3136V11.2983V11.2831V11.2679V11.2528V11.2376V11.2225V11.2075V11.1924V11.1774V11.1624V11.1474V11.1325V11.1176V11.1027V11.0879V11.0731V11.0583V11.0436V11.0288V11.0142V10.9995V10.9849V10.9703V10.9558V10.9413V10.9268V10.9123V10.8979V10.8836V10.8692V10.855V10.8407V10.8265V10.8123V10.7982V10.784V10.77V10.756V10.742V10.728V10.7141V10.7003V10.6864V10.6727V10.6589V10.6452V10.6316V10.618V10.6044V10.5909V10.5774V10.564V10.5506V10.5373V10.524V10.5107V10.4975V10.4844V10.4713V10.4582V10.4452V10.4323V10.4194V10.4065V10.3937V10.3809V10.3682V10.3556V10.343V10.3304V10.3179V10.3055V10.2931V10.2807V10.2684V10.2562V10.244V10.2319V10.2198V10.2078V10.1958V10.1839V10.1721V10.1603V10.1486V10.1369V10.1253V10.1137V10.1022V10.0908V10.0794V10.0681V10.0569V10.0457V10.0345V10.0235V10.0124V10.0015V9.99061V9.97979V9.96903V9.95834V9.94771V9.93715V9.92665V9.91621V9.90585V9.89555V9.88531V9.87514V9.86505V9.85501V9.84505V9.83516V9.82533V9.81557V9.80589V9.79627V9.78672V9.77725V9.76784V9.75851V9.74925V9.74006V9.73095V9.72191V9.71294V9.70404V9.69522V9.68648V9.67781V9.66921V9.6607V9.65225V9.64389V9.6356V9.62739V9.61925V9.6112V9.60322V9.59532V9.5875V9.57976V9.57211V9.56453V9.55703V9.54961V9.54228V9.53502V9.52785V9.52076V9.51376V9.50684V9.5C16.5 8.61634 15.8837 8 15 8H14H7.00004H6C5.11634 8 4.5 8.61634 4.5 9.5V15.5C4.5 16.3837 5.11634 17 6 17H15C15.8837 17 16.5 16.3837 16.5 15.5H17H17.5C17.5 16.9359 16.4359 18 15 18H6C4.56406 18 3.5 16.9359 3.5 15.5V9.5C3.5 8.06406 4.56406 7 6 7H6.50004V6C6.50004 4.93913 6.92147 3.92172 7.67162 3.17157C8.42176 2.42143 9.43918 2 10.5 2C11.5609 2 12.5783 2.42143 13.3285 3.17157C14.0786 3.92172 14.5 4.93913 14.5 6ZM11.0001 12.5001C11.0001 12.7762 10.7762 13.0001 10.5001 13.0001C10.2239 13.0001 10.0001 12.7762 10.0001 12.5001C10.0001 12.2239 10.2239 12.0001 10.5001 12.0001C10.7762 12.0001 11.0001 12.2239 11.0001 12.5001ZM12.0001 12.5001C12.0001 13.3285 11.3285 14.0001 10.5001 14.0001C9.67165 14.0001 9.00007 13.3285 9.00007 12.5001C9.00007 11.6716 9.67165 11.0001 10.5001 11.0001C11.3285 11.0001 12.0001 11.6716 12.0001 12.5001Z" fill="#68534D"/>
</svg>
