<svg width="20" height="20" viewBox="0 0 20 20" fill="none" xmlns="http://www.w3.org/2000/svg">
<path d="M14.048 2.17267L15.9731 2.38658C16.9028 2.48988 17.6183 3.23072 17.4838 4.15642C17.2146 6.00969 16.2209 9.26251 12.7422 12.7412C9.26351 16.2199 6.0103 17.2141 4.15671 17.4836C3.23085 17.6183 2.48976 16.9027 2.38644 15.9728L2.17258 14.0481C2.08451 13.2554 2.47578 12.4862 3.16828 12.0906L4.45207 11.3572C5.23512 10.9099 6.22067 11.0419 6.85835 11.6796L6.89582 11.7171C7.36867 12.1899 8.05215 12.3894 8.64352 12.0773C9.16664 11.8011 9.85401 11.344 10.5989 10.599C11.3439 9.8541 11.801 9.16673 12.0772 8.64361C12.3893 8.05224 12.1898 7.36876 11.717 6.89591L11.6795 6.85844C11.0418 6.22077 10.9098 5.23521 11.3571 4.45216L12.0905 3.16837C12.4861 2.47587 13.2553 2.0846 14.048 2.17267Z" stroke="#ACA19D" stroke-linecap="round" stroke-linejoin="round"/>
</svg>
